<?xml version="1.0" encoding="UTF-8"?>
<svg width="20px" height="20px" viewBox="0 0 20 20" version="1.1" xmlns="http://www.w3.org/2000/svg" xmlns:xlink="http://www.w3.org/1999/xlink">
    <title>75EAF22F-DAAF-40A3-8756-9C6CAFE91AA3</title>
    <g id="Page-1" stroke="none" stroke-width="1" fill="none" fill-rule="evenodd">
        <g id="Countries---Mobile" transform="translate(-323.000000, -47.000000)" fill="#BECADC">
            <g id="Fields-/-Large-/-Light-/-Active" transform="translate(16.000000, 32.000000)">
                <g id="close" transform="translate(307.000000, 15.000000)">
                    <path d="M16.1120833,3.148475 C15.6239167,2.660325 14.8325,2.660325 14.3443333,3.148475 L9.63025,7.862525 L4.91623333,3.148475 C4.428075,2.660325 3.636625,2.660325 3.14846667,3.148475 C2.66030833,3.63663333 2.66030833,4.42809167 3.14846667,4.91624167 L7.86251667,9.63025 L3.14846667,14.3443333 C2.66031667,14.8325 2.66030833,15.6239167 3.14846667,16.1120833 C3.636625,16.60025 4.42808333,16.60025 4.91623333,16.1120833 L9.63025,11.3980833 L14.3443333,16.1120833 C14.8325,16.60025 15.6239167,16.60025 16.1120833,16.1120833 C16.60025,15.6239167 16.60025,14.8325 16.1120833,14.3443333 L11.3980833,9.63025 L16.1120833,4.91624167 C16.60025,4.42809167 16.60025,3.63663333 16.1120833,3.148475 Z" id="colour"></path>
                </g>
            </g>
        </g>
    </g>
</svg>