<?xml version="1.0" encoding="UTF-8"?>
<svg width="12px" height="12px" viewBox="0 0 12 12" version="1.1" xmlns="http://www.w3.org/2000/svg" xmlns:xlink="http://www.w3.org/1999/xlink">
    <title>52687220-E30B-424B-8031-C04C9DA2FB7A</title>
    <g id="Page-1" stroke="none" stroke-width="1" fill="none" fill-rule="evenodd">
        <g id="Countries---Mobile" transform="translate(-91.000000, -234.000000)">
            <g id="Group-3" transform="translate(16.000000, 114.000000)">
                <g id="Group-2">
                    <g id="Composed-Component-/-Result-Mobile">
                        <g id="Group-3" transform="translate(14.000000, 120.000000)">
                            <g id="Glyph-/-Plane" transform="translate(61.000000, 0.000000)">
                                <g id="airplane-color-filled">
                                    <rect id="Rectangle" x="0" y="0" width="12" height="12"></rect>
                                    <path d="M5.75,5.5 L7.85,5.5 C7.955,5.5 8.055,5.445 8.105,5.355 C8.155,5.265 8.16,5.155 8.11,5.06 L6.51,2.059995 C6.465,1.959995 6.36,1.899995 6.25,1.899995 L5.15,1.899995 C5.06,1.899995 4.975005,1.939995 4.920005,2.009995 C4.865005,2.079995 4.840005,2.169995 4.860005,2.259995 L5.46,5.26 C5.485,5.399995 5.605,5.5 5.75,5.5 Z M7.85,6.5 L5.75,6.5 C5.605,6.5 5.485,6.6 5.455,6.74 L4.855,9.74 C4.835,9.83 4.86,9.92 4.915,9.99 C4.97,10.06 5.055,10.1 5.145,10.1 L6.245,10.1 C6.355,10.1 6.46,10.04 6.51,9.94 L8.11,6.94 C8.16,6.845 8.155,6.735 8.105,6.645 C8.055,6.555 7.955,6.5 7.85,6.5 Z M1.56999,5.305 C1.61499,5.425 1.72999,5.5 1.84999,5.5 C1.88499,5.5 1.91999,5.495 1.95499,5.48 C2.07499,5.435 2.14499,5.32 2.14999,5.2 L2.85999,5.2 L2.93499,5.34 C3.014985,5.485 3.19499,5.54 3.33999,5.465 C3.484985,5.385 3.53999,5.205 3.46499,5.06 L2.66499,3.559995 C2.61499,3.459995 2.50999,3.399995 2.39999,3.399995 L1.29999,3.399995 C1.19999,3.399995 1.10999,3.449995 1.05499,3.529995 C0.99999,3.609995 0.98499,3.709995 1.01999,3.804995 L1.56999,5.305 Z M3.33999,6.535 C3.19499,6.46 3.014985,6.515 2.93499,6.66 L2.85999,6.8 L2.14999,6.8 C2.14999,6.68 2.07499,6.565 1.95499,6.52 C1.79499,6.46 1.62499,6.54 1.56999,6.695 L1.01999,8.195 C0.98499,8.285 0.99999,8.39 1.05499,8.47 C1.10999,8.55 1.19999,8.6 1.29999,8.6 L2.39999,8.6 C2.50999,8.6 2.61499,8.54 2.66499,8.44 L3.46499,6.94 C3.544985,6.795 3.484985,6.615 3.33999,6.535 Z" id="Shape" fill="#03A0F0"></path>
                                    <path d="M9.9,4.899995 L2.1,4.899995 C1.495,4.899995 1,5.395 1,6 C1,6.605 1.495,7.1 2.1,7.1 L9.9,7.1 C10.505,7.1 11,6.605 11,6 C11,5.395 10.505,4.899995 9.9,4.899995 Z" id="Path" fill="#303131"></path>
                                    <path d="M9.9,4.899995 L2.1,4.899995 C1.495,4.899995 1,5.395 1,6 C1,6.605 1.495,7.1 2.1,7.1 L9.9,7.1 C10.505,7.1 11,6.605 11,6 C11,5.395 10.505,4.899995 9.9,4.899995 Z" id="Path" fill-opacity="0.01" fill="#FFFFFF"></path>
                                </g>
                            </g>
                        </g>
                    </g>
                </g>
            </g>
        </g>
    </g>
</svg>