<?xml version="1.0" encoding="UTF-8"?>
<svg width="24px" height="24px" viewBox="0 0 24 24" version="1.1" xmlns="http://www.w3.org/2000/svg" xmlns:xlink="http://www.w3.org/1999/xlink">
    <title>690A409B-E609-470F-B6B3-0E4EB4E15070</title>
    <g id="Page-1" stroke="none" stroke-width="1" fill="none" fill-rule="evenodd">
        <g id="Countries---Mobile" transform="translate(-32.000000, -45.000000)" fill="#94A8C3">
            <g id="Fields-/-Large-/-Light-/-Active" transform="translate(16.000000, 32.000000)">
                <g id="Fields-/-Large-/-Light-/-Overrides-/-Left-Content" transform="translate(0.000000, 13.000000)">
                    <g id="Group">
                        <g id="search" transform="translate(16.000000, 0.000000)">
                            <path d="M20.71,19.29 L15.67,14.25 C17.73,11.49 17.52,7.56 15.02,5.06 C13.69,3.73 11.92,3 10.04,3 C8.16,3 6.39,3.73 5.06,5.06 C3.73,6.39 3,8.16 3,10.04 C3,11.92 3.73,13.69 5.06,15.02 C6.39,16.35 8.16,17.08 10.04,17.08 C11.58,17.08 13.04,16.58 14.25,15.67 L19.29,20.71 C19.49,20.9 19.74,21 20,21 C20.26,21 20.51,20.9 20.71,20.71 C21.1,20.32 21.1,19.68 20.71,19.29 Z M6.48,13.6 C5.52,12.65 5,11.38 5,10.04 C5,8.69 5.52,7.43 6.48,6.48 C7.43,5.52 8.69,5 10.04,5 C11.39,5 12.65,5.52 13.6,6.48 C15.56,8.44 15.56,11.64 13.6,13.61 C12.65,14.56 11.38,15.09 10.04,15.09 C8.7,15.09 7.43,14.55 6.48,13.6 Z" id="colour"></path>
                        </g>
                    </g>
                </g>
            </g>
        </g>
    </g>
</svg>