<?xml version="1.0" encoding="UTF-8"?>
<svg width="12px" height="12px" viewBox="0 0 12 12" version="1.1" xmlns="http://www.w3.org/2000/svg" xmlns:xlink="http://www.w3.org/1999/xlink">
    <title>A1D7417A-B547-4C03-B2F4-39B3E0496F24</title>
    <g id="Page-1" stroke="none" stroke-width="1" fill="none" fill-rule="evenodd">
        <g id="Countries---Mobile" transform="translate(-30.000000, -234.000000)">
            <g id="Group-3" transform="translate(16.000000, 114.000000)">
                <g id="Group-2">
                    <g id="Composed-Component-/-Result-Mobile">
                        <g id="Group-3" transform="translate(14.000000, 120.000000)">
                            <g id="Glyph-/-User">
                                <g id="profile-color-filled">
                                    <rect id="Rectangle" x="0" y="0" width="12" height="12"></rect>
                                    <path d="M7.5,7.0652 C8.3967,6.50325 9,5.45295 9,4.25 C9,2.455075 7.65685,1 6,1 C4.343145,1 3,2.455075 3,4.25 C3,5.45295 3.6033,6.50325 4.5,7.0652 L4.5,7.9 C4.5,7.9 5,8.4 6,8.4 C7,8.4 7.5,7.9 7.5,7.9 L7.5,7.0652 Z" id="Path" fill="#03A0F0"></path>
                                    <path d="M4.5,7.79285 L4.5,7.9 C4.5,7.9 5,8.4 6,8.4 C7,8.4 7.5,7.9 7.5,7.9 L7.5,7.7948 L8.52735,8.0846 C9.4312,8.33955 10.1159,9.07955 10.3001,10.0004 C10.3906095,10.452993 10.0970829,10.8932645 9.64448996,10.9837741 C9.59053005,10.994565 9.53563626,11 9.48060794,11 L2.52061975,11 C2.05851865,11 1.6839117,10.625393 1.6839117,10.1632919 C1.6839117,10.1081931 1.68935422,10.0532289 1.70016,9.9992 L1.70016,9.9992 L1.70016,9.9992 C1.88421,9.07895 2.568135,8.3393 3.47118,8.0839 L4.5,7.79285 Z" id="Shape" fill="#303131"></path>
                                    <path d="M7.5,7.0652 C7.05875,7.34175 6.54645,7.5 6,7.5 C5.45355,7.5 4.94126,7.34175 4.5,7.0652 L4.5,7.9 C4.5,7.9 5,8.4 6,8.4 C7,8.4 7.5,7.9 7.5,7.9 L7.5,7.0652 Z" id="Path" fill="#005AAD"></path>
                                </g>
                            </g>
                        </g>
                    </g>
                </g>
            </g>
        </g>
    </g>
</svg>